Fly_normalized_Motion_pl05
version=1
nRows=8
nColumns=43
inDegrees=yes
endheader
time		pelvis_tilt		pelvis_list		pelvis_rotation		pelvis_tx		pelvis_ty		pelvis_tz		hip_flexion_r		hip_adduction_r		hip_rotation_r		knee_angle_r		ankle_angle_r		subtalar_angle_r		mtp_angle_r		hip_flexion_l		hip_adduction_l		hip_rotation_l		knee_angle_l		ankle_angle_l		subtalar_angle_l		mtp_angle_l		lumbar_extension		lumbar_bending		lumbar_rotation		neck_flexion		neck_lateral_bending		neck_rotation		arm_flex_r		arm_add_r		arm_rot_r		elbow_flex_r		pro_sup_r		wrist_flex_r		wrist_dev_r		hand_finger_flex_r		arm_flex_l		arm_add_l		arm_rot_l		elbow_flex_l		pro_sup_l		wrist_flex_l		wrist_dev_l		hand_finger_flex_l		
1.115833		2.016883		-17.308573		88.335759		0.028779		1.904974		1.209441		56.407162		5.233091		0.443228		-83.170408		-1.871972		-6.465707		0.845348		62.271991		-8.166360		-2.880930		-72.126119		-7.308706		-6.053555		29.241314		-36.397041		0.032628		0.214423		16.140919		-1.668382		4.384258		68.247366		-19.839063		25.527880		72.335341		147.899539		13.466581		9.134406		-23.503483		74.835028		-22.625696		20.059942		66.667241		124.217735		1.404668		2.680515		22.565836		
1.120328		2.012264		-17.219142		88.302453		0.028283		1.899407		1.202097		56.880511		5.161996		0.205597		-82.232956		-1.881515		-6.495002		1.149960		62.133715		-8.192151		-2.972083		-70.778352		-7.597353		-5.921577		29.195897		-36.653241		0.064131		0.237018		16.346675		-1.738069		4.421703		66.862025		-20.106899		25.529729		72.300171		147.981305		13.285420		9.049099		-23.665721		73.284370		-23.009239		19.874484		66.738287		124.143212		1.343590		2.693056		22.410577		
1.124823		1.995248		-17.188947		88.270818		0.027711		1.893474		1.194705		57.388533		5.059793		-0.030963		-81.257553		-1.985563		-6.578482		1.707206		62.047622		-8.200096		-3.070866		-69.420732		-8.012114		-5.770165		29.122834		-36.827485		0.117063		0.211363		16.548602		-1.868881		4.496253		65.411982		-20.295786		25.452400		72.220221		148.216663		13.061279		8.896281		-23.894446		71.565814		-23.397566		19.456516		66.904128		124.105017		1.260849		2.772804		22.147633		
1.129318		1.988160		-17.111341		88.229805		0.027142		1.887334		1.187168		57.802721		4.957753		-0.273744		-80.236218		-2.092285		-6.648846		2.147025		61.885517		-8.226748		-3.169932		-68.072313		-8.423261		-5.568185		29.064984		-37.034195		0.169694		0.210686		16.634266		-1.972350		4.563001		63.926228		-20.551301		25.378430		72.216578		148.368828		12.932306		8.827580		-24.013357		69.840294		-23.847989		19.140276		67.094305		124.045733		1.257090		2.800619		21.970980		
1.133813		2.108025		-17.235819		88.307148		0.026433		1.880680		1.179685		58.361260		4.857264		-0.647745		-79.071270		-2.827655		-6.987114		6.519049		61.988131		-8.214801		-3.060054		-66.738897		-9.066540		-5.450063		28.538923		-37.018777		0.461010		0.030176		16.849795		-2.285815		4.888296		62.406801		-20.365312		25.032402		71.966652		149.740548		13.036184		8.162154		-24.103765		67.601577		-24.260925		17.715866		67.663373		124.874948		2.666351		2.803196		20.487057		
1.138308		2.061520		-17.036043		88.228089		0.025969		1.874324		1.171845		58.554643		4.721506		-0.855509		-77.985319		-2.977776		-6.954096		6.718413		61.624013		-8.257963		-3.222504		-65.357261		-9.611504		-5.028075		28.476392		-37.328123		0.438432		0.088090		16.876443		-2.334688		4.894123		60.746373		-20.687589		24.785883		72.086581		149.555987		12.911065		8.383935		-24.145679		65.710959		-24.533454		17.128036		67.737896		124.557563		2.424678		2.528359		20.257385		
1.142803		2.050025		-16.933756		88.126158		0.025578		1.867782		1.164214		58.748154		4.644859		-1.046165		-76.714088		-3.066567		-6.886075		6.912762		61.337021		-8.295099		-3.287195		-63.928608		-9.997145		-4.737150		28.423443		-37.527333		0.429621		0.182491		16.940654		-2.403039		4.926389		59.255220		-21.021976		24.750808		71.948142		149.471194		12.899938		8.524575		-24.143967		63.933542		-24.879999		16.735688		67.662572		124.408208		2.323334		2.291931		20.120224		
1.147298		2.063401		-16.815546		87.996977		0.025067		1.860993		1.156167		58.880265		4.589629		-1.231843		-75.446532		-3.298103		-6.744217		7.443325		61.030912		-8.413360		-3.423746		-62.583318		-10.769511		-4.194628		28.299748		-37.742038		0.498362		0.224581		17.089955		-2.655485		5.050844		57.549184		-21.118387		24.389064		71.900658		149.413801		12.732049		8.678572		-24.173411		61.615080		-25.081820		15.423978		67.838854		124.328194		1.994424		1.670780		19.850896		
